<?xml version="1.0" encoding="iso-8859-1"?>
<!-- Uploaded to: SVG Repo, www.svgrepo.com, Generator: SVG Repo Mixer Tools -->
<svg version="1.1" id="Layer_1" xmlns="http://www.w3.org/2000/svg" xmlns:xlink="http://www.w3.org/1999/xlink" 
	 viewBox="0 0 512 512" xml:space="preserve">
<path style="fill:#C7B299;" d="M480.381,340.459c0-123.803-100.459-224.381-224.381-224.381S31.619,216.656,31.619,340.459H480.381z
	"/>
<path style="fill:#998675;" d="M296.068,119.558c-13.009-2.346-26.384-3.56-40.068-3.56c-123.922,0-224.381,100.656-224.381,224.46
	h80.136C111.756,230.295,191.275,138.46,296.068,119.558z"/>
<rect x="207.738" y="372.197" style="fill:#C7B299;" width="96.525" height="24.041"/>
<polyline style="fill:#F15A24;" points="31.475,444.328 31.475,396.066 480.525,396.066 480.525,444.328 "/>
<polyline style="fill:#B5441B;" points="31.475,444.328 31.475,396.066 112.262,396.066 112.262,444.328 "/>
<rect y="435.934" width="512" height="15.738"/>
<polygon points="487.869,428.59 472.131,428.59 472.131,404.459 39.869,404.459 39.869,428.59 24.131,428.59 24.131,388.721 
	487.869,388.721 "/>
<polygon style="fill:#F15A24;" points="280.131,60.328 231.869,60.328 231.869,76.066 247.607,76.066 247.607,83.41 263.344,83.41 
	263.344,76.066 280.131,76.066 "/>
<path d="M487.869,347.803v-7.869c0-125.605-99.862-228.228-224.525-232.122V91.803h-15.738v16.049
	c-124.173,4.436-223.475,106.83-223.475,232.082v7.869h223.475v16.787h-39.869v15.738h96.525V364.59h-40.918v-16.787H487.869z
	 M256,123.422c116.755,0,212.221,92.884,216.37,208.643H39.629C43.779,216.306,139.245,123.422,256,123.422z"/>
<g>
	<path style="fill:#FFFFFF;" d="M129.856,289.798l-15.461-2.94c8.861-46.607,36.125-88.982,74.799-116.26l9.071,12.861
		C162.897,208.407,137.962,247.166,129.856,289.798z"/>
	<rect x="247.607" y="412.852" style="fill:#FFFFFF;" width="16.787" height="15.738"/>
	<rect x="271.738" y="412.852" style="fill:#FFFFFF;" width="16.787" height="15.738"/>
	<rect x="223.475" y="412.852" style="fill:#FFFFFF;" width="16.787" height="15.738"/>
</g>
</svg>