<?xml version="1.0" encoding="UTF-8"?>
<svg version="1.1" xmlns="http://www.w3.org/2000/svg" width="789" height="789">
<path d="M0 0 C1.77480492 -0.00855011 1.77480492 -0.00855011 3.58546448 -0.01727295 C6.0856946 -0.02667389 8.58593684 -0.03323728 11.08618164 -0.03710938 C14.80964537 -0.04669666 18.53252753 -0.07771864 22.25585938 -0.109375 C111.83557655 -0.50567647 203.19151777 33.7120035 270.67041016 92.703125 C272.03301532 93.85722565 273.42047178 94.98203228 274.81787109 96.09375 C281.80027283 101.66054497 288.17792796 107.62915373 294.45800781 113.95898438 C296.06487932 115.57658787 297.68219119 117.18319413 299.30078125 118.7890625 C305.79403792 125.27408309 311.72108541 132.0162442 317.44140625 139.203125 C318.37616725 140.30496888 319.31753313 141.40129567 320.26953125 142.48828125 C327.94597841 151.29143275 334.75599682 160.6325919 341.44140625 170.203125 C341.88871094 170.83976074 342.33601562 171.47639648 342.796875 172.13232422 C350.42796454 183.05358736 356.99343523 194.55397992 363.44140625 206.203125 C363.87984863 206.98671387 364.31829102 207.77030273 364.77001953 208.57763672 C393.03038659 259.3027665 410.42015442 320.57022484 410.64453125 378.76171875 C410.65023132 379.94492203 410.6559314 381.12812531 410.6618042 382.34718323 C410.67120514 384.84741335 410.67776853 387.34765559 410.68164062 389.84790039 C410.69122791 393.57136412 410.72224989 397.29424628 410.75390625 401.01757812 C411.15020772 490.5972953 376.93252775 581.95323652 317.94140625 649.43212891 C316.7873056 650.79473407 315.66249897 652.18219053 314.55078125 653.57958984 C308.98398628 660.56199158 303.01537752 666.93964671 296.68554688 673.21972656 C295.06794338 674.82659807 293.46133712 676.44390994 291.85546875 678.0625 C285.37044816 684.55575667 278.62828705 690.48280416 271.44140625 696.203125 C270.33956237 697.137886 269.24323558 698.07925188 268.15625 699.03125 C259.3530985 706.70769716 250.01193935 713.51771557 240.44140625 720.203125 C239.80477051 720.65042969 239.16813477 721.09773437 238.51220703 721.55859375 C227.59094389 729.18968329 216.09055133 735.75515398 204.44140625 742.203125 C203.65781738 742.64156738 202.87422852 743.08000977 202.06689453 743.53173828 C151.34176475 771.79210534 90.07430641 789.18187317 31.8828125 789.40625 C30.69960922 789.41195007 29.51640594 789.41765015 28.29734802 789.42352295 C25.7971179 789.43292389 23.29687566 789.43948728 20.79663086 789.44335938 C17.07316713 789.45294666 13.35028497 789.48396864 9.62695312 789.515625 C-79.95276405 789.91192647 -171.30870527 755.6942465 -238.78759766 696.703125 C-240.15020282 695.54902435 -241.53765928 694.42421772 -242.93505859 693.3125 C-249.91746033 687.74570503 -256.29511546 681.77709627 -262.57519531 675.44726562 C-264.18206682 673.82966213 -265.79937869 672.22305587 -267.41796875 670.6171875 C-273.91122542 664.13216691 -279.83827291 657.3900058 -285.55859375 650.203125 C-286.49335475 649.10128112 -287.43472063 648.00495433 -288.38671875 646.91796875 C-296.06316591 638.11481725 -302.87318432 628.7736581 -309.55859375 619.203125 C-310.00589844 618.56648926 -310.45320313 617.92985352 -310.9140625 617.27392578 C-318.54515204 606.35266264 -325.11062273 594.85227008 -331.55859375 583.203125 C-331.99703613 582.41953613 -332.43547852 581.63594727 -332.88720703 580.82861328 C-361.14757409 530.1034835 -378.53734192 468.83602516 -378.76171875 410.64453125 C-378.76741882 409.46132797 -378.7731189 408.27812469 -378.7789917 407.05906677 C-378.78839264 404.55883665 -378.79495603 402.05859441 -378.79882812 399.55834961 C-378.80841541 395.83488588 -378.83943739 392.11200372 -378.87109375 388.38867188 C-379.26739522 298.8089547 -345.04971525 207.45301348 -286.05859375 139.97412109 C-284.9044931 138.61151593 -283.77968647 137.22405947 -282.66796875 135.82666016 C-277.10117378 128.84425842 -271.13256502 122.46660329 -264.80273438 116.18652344 C-263.18513088 114.57965193 -261.57852462 112.96234006 -259.97265625 111.34375 C-253.48763566 104.85049333 -246.74547455 98.92344584 -239.55859375 93.203125 C-238.45674987 92.268364 -237.36042308 91.32699812 -236.2734375 90.375 C-227.470286 82.69855284 -218.12912685 75.88853443 -208.55859375 69.203125 C-207.92195801 68.75582031 -207.28532227 68.30851562 -206.62939453 67.84765625 C-195.70813139 60.21656671 -184.20773883 53.65109602 -172.55859375 47.203125 C-171.77500488 46.76468262 -170.99141602 46.32624023 -170.18408203 45.87451172 C-119.45895225 17.61414466 -58.19149391 0.22437683 0 0 Z " fill="#FEFEFE" transform="translate(378.55859375,-0.203125)"/>
<path d="M0 0 C1.12215924 -0.00311998 2.24431847 -0.00623996 3.40048254 -0.00945449 C7.16323106 -0.01743565 10.92581837 -0.01111 14.68856812 -0.00482178 C17.38603691 -0.0075318 20.08349459 -0.0110206 22.78096008 -0.01544189 C29.3521799 -0.02433615 35.92335403 -0.02241256 42.49457563 -0.01661661 C47.84371193 -0.01209489 53.19283545 -0.01148945 58.54197311 -0.01366425 C59.68525461 -0.01412394 59.68525461 -0.01412394 60.85163271 -0.01459293 C62.40031788 -0.01523242 63.94900305 -0.01588085 65.49768822 -0.01653811 C80.02592212 -0.02224289 94.55413079 -0.015684 109.08236055 -0.00493738 C121.51181875 0.00397311 133.94123952 0.0024671 146.37069702 -0.0067749 C160.82620019 -0.01751846 175.28168114 -0.02166713 189.73718774 -0.01555037 C191.28437002 -0.01491335 192.8315523 -0.0142846 194.37873459 -0.01366425 C195.52034615 -0.01320142 195.52034615 -0.01320142 196.68502057 -0.01272924 C202.01221386 -0.01101262 207.33939293 -0.01389548 212.66658401 -0.01862335 C219.18212317 -0.02427885 225.69761425 -0.02262004 232.21314801 -0.01206186 C235.52904892 -0.00686322 238.84480524 -0.0057531 242.1607151 -0.01136017 C276.5116626 -0.06404473 276.5116626 -0.06404473 292.8296839 3.77839255 C294.90820329 4.25652969 296.99042657 4.66063352 299.08847046 5.04302979 C325.62715877 10.02643607 352.55981482 19.89524441 374.89706421 35.25396729 C375.44443237 35.62312256 375.99180054 35.99227783 376.55575562 36.37261963 C411.54581204 60.04381111 438.69685371 93.87938208 451.89706421 134.25396729 C452.44427124 135.89945557 452.44427124 135.89945557 453.00253296 137.57818604 C459.40545604 158.30795616 461.0606375 179.68727858 461.89706421 201.25396729 C461.94379272 202.44280518 461.99052124 203.63164307 462.03866577 204.85650635 C462.56934307 220.69209539 461.28312257 235.72184966 458.42489624 251.30059814 C457.88520397 254.32032864 457.42352302 257.346786 456.95956421 260.37896729 C456.04259601 265.88929182 454.59675835 271.04375877 452.77206421 276.31646729 C452.46784546 277.20914307 452.16362671 278.10181885 451.85018921 279.02154541 C439.55163763 314.44237384 419.81852636 345.21919087 389.89706421 368.25396729 C389.3524353 368.68032471 388.8078064 369.10668213 388.24667358 369.54595947 C371.96837246 382.2342649 354.02202708 391.42471027 334.70565796 398.57745361 C333.27789611 399.11151518 331.860694 399.67380466 330.44784546 400.24615479 C315.94661315 405.96566352 300.10358816 408.79522394 284.70291138 410.8713398 C282.65193918 411.15102657 280.60301589 411.44585555 278.55545044 411.74947929 C268.17181071 413.19573157 258.02992395 413.52851209 247.55722046 413.48101807 C245.78148403 413.48045231 244.00574714 413.48077371 242.23001099 413.48190308 C237.46247329 413.48247119 232.69503857 413.4708057 227.92752457 413.45675516 C222.92543323 413.44415644 217.92333889 413.44307016 212.92123413 413.44070435 C203.47276442 413.43451622 194.02434161 413.41814192 184.57589245 413.39800537 C173.80910649 413.37556281 163.04231817 413.36463202 152.2755146 413.3546145 C130.14933841 413.333773 108.02320428 413.29864952 85.89706421 413.25396729 C85.90075138 414.14149878 85.90443855 415.02903027 85.90823746 415.94345665 C85.99665951 437.56099858 86.0628084 459.17850923 86.1043129 480.79619408 C86.12491879 491.25044636 86.15300168 501.70457776 86.19882202 512.15875244 C86.23875017 521.27295185 86.26451136 530.38706369 86.27341819 539.50134814 C86.2786228 544.32520111 86.2908144 549.14880361 86.31998444 553.97257614 C86.34724804 558.51815663 86.35548718 563.06338481 86.34949493 567.60903931 C86.35059029 569.27224267 86.35847881 570.9354585 86.37388611 572.59859085 C86.46229697 582.63931875 86.19576919 591.51951193 79.93222046 599.87506104 C72.34931262 606.85734251 66.1468927 610.48118391 55.56576538 610.54449463 C54.50348976 610.55457047 54.50348976 610.55457047 53.41975403 610.56484985 C51.09310771 610.5837498 48.76675113 610.58775005 46.44003296 610.58990479 C44.81106959 610.59633867 43.18210736 610.60306746 41.55314636 610.6100769 C38.14293745 610.62202994 34.73282969 610.62575981 31.32260132 610.62457275 C26.97165748 610.62436977 22.62136827 610.65165948 18.27057934 610.68611717 C14.90662204 610.70845238 11.54282059 610.71240827 8.17879677 610.7113533 C6.5757554 610.71369978 4.97270911 610.72246913 3.36974144 610.73801804 C-7.4897906 610.83348978 -16.31351829 610.12332876 -24.85293579 602.69146729 C-25.54902954 602.11267822 -26.24512329 601.53388916 -26.96231079 600.93756104 C-33.04655346 593.31005243 -34.84403269 585.38105127 -34.737854 575.82414246 C-34.74565396 574.72740741 -34.75345391 573.63067236 -34.76149023 572.50070292 C-34.78131008 568.85422459 -34.7656839 565.20880152 -34.74990845 561.56231689 C-34.75668891 558.93655288 -34.76559445 556.31079363 -34.77645874 553.68504333 C-34.7986153 547.31096067 -34.79392431 540.93717346 -34.77939554 534.56307953 C-34.76807423 529.38033682 -34.76658484 524.19767655 -34.77201462 519.014925 C-34.77278078 518.27550581 -34.77354695 517.53608661 -34.77433633 516.77426078 C-34.77593506 515.27185894 -34.77755612 513.76945713 -34.77919929 512.26705534 C-34.7934343 498.2011581 -34.77709895 484.13542419 -34.75019746 470.06955374 C-34.72785603 458.01497643 -34.73174526 445.96063988 -34.75479126 433.90606689 C-34.7815811 419.8867745 -34.79206609 405.86762495 -34.77672994 391.84831053 C-34.77513729 390.35193831 -34.77356544 388.85556607 -34.77201462 387.3591938 C-34.77085755 386.25499945 -34.77085755 386.25499945 -34.76967711 385.12849815 C-34.76536999 379.95481615 -34.77262517 374.78122519 -34.78441238 369.6075573 C-34.79994312 362.63800421 -34.78880199 355.6689123 -34.7599411 348.69940376 C-34.75334014 346.14447406 -34.75521089 343.58950604 -34.76625443 341.03459167 C-34.7799592 337.54148471 -34.76273163 334.04982381 -34.737854 330.55680847 C-34.74900761 329.55066606 -34.76016122 328.54452365 -34.77165282 327.50789207 C-34.65873478 319.309484 -32.10588843 313.0702196 -27.04043579 306.63287354 C-20.91080975 300.88634912 -16.13592406 297.13178204 -7.51073933 297.12647533 C-6.58812599 297.12346769 -5.66551264 297.12046004 -4.71494132 297.11736125 C-3.19967307 297.11998681 -3.19967307 297.11998681 -1.65379333 297.12266541 C-0.5777063 297.12054969 0.49838073 297.11843398 1.60707647 297.11625415 C5.22612873 297.11024559 8.84514622 297.11125496 12.46420288 297.11212158 C15.05473897 297.10909036 17.64527452 297.105569 20.23580933 297.10159302 C25.82492757 297.09347814 31.41404125 297.08853509 37.00316429 297.08530235 C45.86107159 297.07979372 54.7189406 297.06287977 63.576828 297.04396057 C66.61202901 297.03760316 69.64723012 297.03129466 72.68243122 297.02498341 C73.44112104 297.02339964 74.19981085 297.02181588 74.98149126 297.02018413 C83.62107075 297.00224231 92.26065298 296.98602325 100.90023804 296.9710083 C102.0847496 296.96894449 102.0847496 296.96894449 103.2931907 296.96683899 C116.0377354 296.94499527 128.78227018 296.9341744 141.52683028 296.92663755 C154.64317558 296.9185242 167.75943688 296.89509193 180.87573415 296.85868388 C188.94488768 296.83682151 197.01386764 296.82694381 205.08304922 296.83318422 C210.63706899 296.83639538 216.19094238 296.82479214 221.74491682 296.80228981 C224.93390802 296.78980655 228.12251381 296.78547287 231.31152534 296.79470634 C262.49806025 296.87578025 295.76286547 293.56743534 319.58456421 271.19146729 C337.17674849 252.94492422 341.51193796 227.68520963 341.07675171 203.24224854 C340.00066256 179.35774805 333.31228625 157.30811205 315.72909546 140.13677979 C300.14807766 126.72196714 280.73460371 122.00305141 260.89706421 119.25396729 C259.91723761 119.0849632 258.937411 118.91595911 257.92789268 118.74183369 C252.9814191 118.04052205 248.04240683 118.11397605 243.05541992 118.12266541 C241.97364766 118.12054969 240.89187541 118.11843398 239.77732217 118.11625415 C236.15788351 118.1102698 232.53847987 118.11125318 228.91903687 118.11212158 C226.32180217 118.1090891 223.72456802 118.1055674 221.12733459 118.10159302 C215.53659701 118.09349564 209.94586397 118.08854162 204.35512161 118.08530235 C195.51397035 118.0797937 186.6728574 118.0628845 177.83172607 118.04396057 C174.80406386 118.03760452 171.77640155 118.031296 168.74873924 118.02498341 C167.99217661 118.02339964 167.23561398 118.02181588 166.45612521 118.02018413 C157.85180553 118.00226198 149.24748318 117.98602799 140.64315796 117.9710083 C139.46386754 117.96894449 139.46386754 117.96894449 138.26075308 117.96683899 C125.51852315 117.94490564 112.77630316 117.93415109 100.03405769 117.92663755 C86.94029443 117.91856105 73.84661616 117.89525553 60.75290143 117.85868388 C52.68273419 117.83668721 44.61274183 117.82698551 36.54254614 117.83318422 C30.35606141 117.83673975 24.1697939 117.8194676 17.9833622 117.79450607 C15.44898087 117.78758694 12.91457035 117.78747543 10.3801899 117.79470634 C6.91734852 117.80358788 3.45544137 117.7879106 -0.00732422 117.76622009 C-1.00743511 117.77466263 -2.00754599 117.78310517 -3.03796327 117.79180354 C-12.06417331 117.68743539 -19.58113119 114.83329923 -26.10772705 108.48683167 C-34.18532381 99.44708675 -34.98443858 89.42708141 -34.82949829 77.86724854 C-34.82845787 76.31412254 -34.82950569 74.7609939 -34.83251953 73.20787048 C-34.83234142 69.9743752 -34.81175569 66.74189107 -34.77529907 63.50860596 C-34.72981139 59.38636147 -34.72887047 55.26558193 -34.74233437 51.1431551 C-34.74904832 47.94381423 -34.73569191 44.74480114 -34.7160759 41.54552269 C-34.70843916 40.02625434 -34.7060472 38.50694935 -34.70924759 36.98766518 C-34.71343667 25.10417246 -33.13961421 16.81795821 -24.89590454 7.97662354 C-17.36155818 0.73774173 -9.95285891 -0.04242405 0 0 Z " fill="#393E46" transform="translate(243.10293579101563,93.74603271484375)"/>
</svg>
